<svg width="" height="" viewBox="0 0 133 133" fill="none" xmlns="http://www.w3.org/2000/svg">
<path d="M66.24 132.48C102.823 132.48 132.48 102.823 132.48 66.24C132.48 29.6567 102.823 0 66.24 0C29.6567 0 0 29.6567 0 66.24C0 102.823 29.6567 132.48 66.24 132.48Z" fill="#F7931A"/>
<path d="M96.0025 58.0428C97.3024 49.3654 90.6908 44.6996 81.6574 41.5863L84.5885 29.8287L77.4346 28.0485L74.578 39.4956C72.6984 39.0236 70.7692 38.5848 68.8441 38.146L71.7214 26.6243L64.5674 24.84L61.6363 36.5935C60.0797 36.2374 58.5479 35.8897 57.0658 35.5171L57.074 35.4798L47.2043 33.0165L45.2999 40.6589C45.2999 40.6589 50.6115 41.8761 50.4997 41.9506C53.3977 42.6751 53.9194 44.5919 53.8324 46.1155L50.4956 59.5084C50.6943 59.558 50.951 59.6326 51.2408 59.7443L50.4832 59.558L45.805 78.3205C45.4489 79.1982 44.5505 80.5189 42.5219 80.0179C42.5965 80.1214 37.3221 78.7221 37.3221 78.7221L33.77 86.911L43.085 89.2336C44.8155 89.6683 46.5129 90.1237 48.1813 90.5501L45.2212 102.44L52.371 104.22L55.3021 92.4628C57.2562 92.9885 59.1523 93.4771 61.007 93.9407L58.0842 105.649L65.2381 107.429L68.1982 95.5636C80.4029 97.8737 89.5772 96.9422 93.4398 85.905C96.5531 77.0206 93.2866 71.8911 86.8655 68.5501C91.5437 67.4737 95.0627 64.3977 96.0025 58.0428V58.0428ZM79.6495 80.9701C77.4428 89.8587 62.4767 85.0522 57.6247 83.8474L61.5577 68.0947C66.4097 69.3077 81.9637 71.7048 79.6495 80.9701ZM81.8644 57.9145C79.8482 65.9999 67.3951 61.8889 63.3586 60.8828L66.919 46.5998C70.9555 47.6059 83.9675 49.4813 81.8644 57.9145Z" fill="white"/>
</svg>
