<svg width="" height="" viewBox="0 0 133 133" fill="none" xmlns="http://www.w3.org/2000/svg">
<path d="M66.24 132.48C102.823 132.48 132.48 102.823 132.48 66.24C132.48 29.6567 102.823 0 66.24 0C29.6567 0 0 29.6567 0 66.24C0 102.823 29.6567 132.48 66.24 132.48Z" fill="#627EEA"/>
<path d="M68.3017 16.56V53.2818L99.3393 67.1508L68.3017 16.56Z" fill="white" fill-opacity="0.602"/>
<path d="M68.3017 16.56L37.26 67.1508L68.3017 53.2818V16.56Z" fill="white"/>
<path d="M68.3017 90.9475V115.899L99.36 72.9302L68.3017 90.9475Z" fill="white" fill-opacity="0.602"/>
<path d="M68.3017 115.899V90.9434L37.26 72.9302L68.3017 115.899Z" fill="white"/>
<path d="M68.3017 85.1723L99.3393 67.1508L68.3017 53.2901V85.1723Z" fill="white" fill-opacity="0.2"/>
<path d="M37.26 67.1508L68.3017 85.1723V53.2901L37.26 67.1508Z" fill="white" fill-opacity="0.602"/>
</svg>
