<svg width="" height="" viewBox="0 0 133 133" fill="none" xmlns="http://www.w3.org/2000/svg">
<path d="M66.24 132.48C102.823 132.48 132.48 102.823 132.48 66.24C132.48 29.6567 102.823 0 66.24 0C29.6567 0 0 29.6567 0 66.24C0 102.823 29.6567 132.48 66.24 132.48Z" fill="#2775C9"/>
<path d="M65.205 113.85C38.3364 113.85 16.56 92.0736 16.56 65.205C16.56 38.3364 38.3364 16.56 65.205 16.56C92.0736 16.56 113.85 38.3364 113.85 65.205C113.85 78.1065 108.725 90.4795 99.6022 99.6022C90.4795 108.725 78.1065 113.85 65.205 113.85V113.85ZM62.307 47.1546C59.6454 47.2866 57.1293 48.4087 55.2526 50.3007C53.376 52.1927 52.2743 54.7178 52.164 57.3804C52.164 62.3898 55.2276 65.6604 61.7274 67.0266L66.2814 68.103C70.7112 69.138 72.5328 70.6284 72.5328 73.1538C72.5328 75.6792 69.345 78.1632 65.205 78.1632C63.7345 78.298 62.2557 78.0162 60.9378 77.3499C59.62 76.6837 58.5163 75.6599 57.753 74.3958C57.5269 73.9161 57.1698 73.5101 56.723 73.2244C56.2763 72.9388 55.7579 72.7851 55.2276 72.7812H52.785C52.5972 72.816 52.4181 72.8876 52.258 72.9919C52.0979 73.0961 51.9601 73.231 51.8523 73.3888C51.7446 73.5465 51.6691 73.724 51.6302 73.9111C51.5914 74.0981 51.5899 74.291 51.6258 74.4786C52.2208 76.9069 53.6042 79.0695 55.5594 80.6276C57.5146 82.1858 59.9313 83.0517 62.4312 83.0898V86.5674C62.4312 87.3415 62.7387 88.0839 63.2861 88.6312C63.8334 89.1786 64.5758 89.4861 65.3499 89.4861C66.124 89.4861 66.8664 89.1786 67.4137 88.6312C67.9611 88.0839 68.2686 87.3415 68.2686 86.5674V83.0484C71.0953 83.0164 73.7979 81.882 75.8006 79.887C77.8034 77.8919 78.9482 75.1938 78.9912 72.3672C78.9912 67.1094 75.969 64.0872 68.8068 62.5554L64.6668 61.6446C60.5268 60.6096 58.581 59.2434 58.581 56.925C58.581 54.6066 61.065 52.0398 65.205 52.0398C66.5088 51.9036 67.8242 52.1478 68.9923 52.7429C70.1604 53.3379 71.1312 54.2584 71.7876 55.3932C72.0537 55.9599 72.4749 56.4396 73.0025 56.7767C73.53 57.1137 74.1423 57.2943 74.7684 57.2976H76.7142C77.1566 57.1894 77.5389 56.9119 77.7789 56.5248C78.0188 56.1378 78.0974 55.672 77.9976 55.2276C77.4367 52.9855 76.1821 50.9778 74.4127 49.491C72.6433 48.0041 70.4496 47.114 68.1444 46.9476V44.091C68.1444 43.3169 67.8369 42.5745 67.2895 42.0272C66.7422 41.4798 65.9998 41.1723 65.2257 41.1723C64.4516 41.1723 63.7092 41.4798 63.1619 42.0272C62.6145 42.5745 62.307 43.3169 62.307 44.091V47.1546V47.1546ZM28.7316 65.205C28.7363 72.8312 31.1368 80.2631 35.594 86.4512C40.0512 92.6392 46.3398 97.2706 53.5716 99.6912H54.1512C54.6453 99.6912 55.1192 99.4949 55.4685 99.1455C55.8179 98.7962 56.0142 98.3223 56.0142 97.8282V96.9588C56.0156 96.1881 55.7881 95.4344 55.3606 94.7932C54.9331 94.152 54.3249 93.6521 53.613 93.357C47.981 91.0837 43.1568 87.1792 39.7597 82.1446C36.3625 77.11 34.5475 71.175 34.5475 65.1015C34.5475 59.028 36.3625 53.093 39.7597 48.0584C43.1568 43.0238 47.981 39.1193 53.613 36.846C54.3216 36.5582 54.9284 36.0658 55.3561 35.4317C55.7838 34.7976 56.0129 34.0504 56.0142 33.2856V32.3334C56.0169 32.0538 55.9521 31.7777 55.8254 31.5285C55.6986 31.2793 55.5136 31.0643 55.2861 30.9018C55.0586 30.7393 54.7953 30.634 54.5184 30.595C54.2416 30.5559 53.9594 30.5842 53.6958 30.6774C46.4341 33.079 40.1137 37.7076 35.6323 43.9057C31.1509 50.1039 28.7363 57.5565 28.7316 65.205V65.205ZM101.678 65.205C101.665 57.5859 99.2605 50.1632 94.8039 43.9834C90.3473 37.8036 84.0635 33.1785 76.8384 30.7602H76.2174C75.7013 30.7602 75.2064 30.9652 74.8415 31.3301C74.4766 31.695 74.2716 32.1899 74.2716 32.706V33.327C74.2883 34.1255 74.5356 34.9021 74.9837 35.5632C75.4318 36.2243 76.0615 36.7417 76.797 37.053C82.4162 39.3329 87.2273 43.2377 90.6146 48.2676C94.0019 53.2975 95.8113 59.2237 95.8113 65.2878C95.8113 71.3519 94.0019 77.2781 90.6146 82.308C87.2273 87.3379 82.4162 91.2426 76.797 93.5226C76.0755 93.8371 75.4587 94.3508 75.0187 95.0034C74.5788 95.656 74.334 96.4204 74.313 97.2072V97.911C74.3165 98.2179 74.3926 98.5196 74.5351 98.7915C74.6775 99.0634 74.8822 99.2978 75.1325 99.4754C75.3828 99.6531 75.6716 99.769 75.9753 99.8137C76.279 99.8584 76.5889 99.8306 76.8798 99.7326C84.1106 97.3027 90.395 92.662 94.8449 86.4663C99.2948 80.2706 101.685 72.8331 101.678 65.205V65.205Z" fill="white"/>
</svg>
